<svg width="144" height="42" viewBox="0 0 144 42" fill="none" xmlns="http://www.w3.org/2000/svg">
<g id="Group">
<path id="BG" d="M143.823 37.0284C143.823 39.2488 141.977 41.0475 139.693 41.0475H4.56805C2.28597 41.0475 0.433594 39.2488 0.433594 37.0284V4.97746C0.433594 2.75804 2.28597 0.953125 4.56805 0.953125H139.692C141.977 0.953125 143.821 2.75804 143.821 4.97746L143.823 37.0284Z" fill="black"/>
<g id="Icon">
<g id="Vector">
<path d="M31.9874 20.7768C31.9563 17.4195 34.8219 15.7862 34.953 15.7102C33.33 13.4154 30.8146 13.1018 29.9306 13.0768C27.8179 12.8612 25.7686 14.3029 24.6923 14.3029C23.5946 14.3029 21.9373 13.0977 20.1511 13.1331C17.8526 13.1674 15.7023 14.4581 14.523 16.4622C12.0891 20.5487 13.9043 26.5539 16.2361 29.857C17.4026 31.4747 18.7656 33.281 20.5496 33.2174C22.295 33.1477 22.947 32.1383 25.0532 32.1383C27.1401 32.1383 27.7524 33.2174 29.5719 33.1768C31.445 33.1477 32.6244 31.5518 33.75 29.9195C35.098 28.0654 35.6393 26.2393 35.6608 26.1456C35.6167 26.131 32.0229 24.8008 31.9874 20.7768Z" fill="white"/>
<path d="M28.5504 10.9039C29.4891 9.76536 30.1314 8.21641 29.9531 6.64453C28.5944 6.70286 26.8953 7.55599 25.9168 8.66953C25.0511 9.65078 24.2777 11.2591 24.4775 12.7716C26.0038 12.882 27.5709 12.0247 28.5504 10.9039Z" fill="white"/>
</g>
</g>
<g id="Download on the">
<path id="D" d="M52.3111 10.5917C52.3111 11.8177 51.932 12.7406 51.1748 13.3604C50.4734 13.9323 49.4767 14.2188 48.1856 14.2188C47.5455 14.2188 46.9977 14.1917 46.5391 14.1375V7.43854C47.1373 7.34479 47.7818 7.29688 48.4778 7.29688C49.7076 7.29688 50.6345 7.55625 51.2596 8.075C51.9599 8.66146 52.3111 9.5 52.3111 10.5917ZM51.1243 10.6219C51.1243 9.82708 50.9073 9.21771 50.4734 8.79271C50.0395 8.36875 49.4058 8.15625 48.5712 8.15625C48.2168 8.15625 47.915 8.17917 47.6647 8.22708V13.3198C47.8032 13.3406 48.0567 13.35 48.4251 13.35C49.2865 13.35 49.9514 13.1177 50.4197 12.6531C50.888 12.1885 51.1243 11.5115 51.1243 10.6219Z" fill="white"/>
<path id="o" d="M58.6035 11.663C58.6035 12.4182 58.3812 13.037 57.9365 13.5224C57.4704 14.0214 56.8528 14.2703 56.0816 14.2703C55.3383 14.2703 54.7465 14.0318 54.3051 13.5526C53.8647 13.0745 53.6445 12.4714 53.6445 11.7443C53.6445 10.9839 53.8712 10.3599 54.3266 9.87552C54.782 9.39115 55.3942 9.14844 56.1654 9.14844C56.9086 9.14844 57.5058 9.38698 57.958 9.8651C58.3876 10.3297 58.6035 10.9297 58.6035 11.663ZM57.436 11.6984C57.436 11.2453 57.3351 10.8568 57.1342 10.5328C56.8979 10.1411 56.5617 9.94531 56.1246 9.94531C55.6724 9.94531 55.3287 10.1411 55.0924 10.5328C54.8905 10.8568 54.7906 11.2516 54.7906 11.7182C54.7906 12.1714 54.8915 12.5599 55.0924 12.8839C55.3362 13.2755 55.6756 13.4714 56.1138 13.4714C56.5435 13.4714 56.8807 13.2724 57.1235 12.8734C57.3318 12.5432 57.436 12.1516 57.436 11.6984Z" fill="white"/>
<path id="w" d="M67.0429 9.25L65.4587 14.1604H64.4276L63.7713 12.0281C63.6048 11.4958 63.4695 10.9667 63.3642 10.4417H63.3438C63.2461 10.9812 63.1108 11.5094 62.9368 12.0281L62.2397 14.1604H61.1968L59.707 9.25H60.8638L61.4363 11.5844C61.5748 12.1365 61.6887 12.6625 61.78 13.1604H61.8004C61.8842 12.75 62.0227 12.2271 62.2182 11.5948L62.9368 9.25104H63.854L64.5425 11.5448C64.709 12.1042 64.8443 12.6427 64.9485 13.1615H64.9797C65.0559 12.6562 65.1708 12.1177 65.3234 11.5448L65.9377 9.25104H67.0429V9.25Z" fill="white"/>
<path id="n" d="M72.8775 14.1581H71.7519V11.3456C71.7519 10.4789 71.4125 10.0456 70.7315 10.0456C70.3975 10.0456 70.1279 10.1643 69.9185 10.4029C69.7112 10.6414 69.6059 10.9227 69.6059 11.2445V14.157H68.4803V10.6508C68.4803 10.2195 68.4663 9.75182 68.4395 9.24557H69.4287L69.4813 10.0133H69.5125C69.6435 9.77474 69.839 9.57787 70.0957 9.42057C70.4007 9.23724 70.7423 9.14453 71.116 9.14453C71.5886 9.14453 71.9817 9.29245 72.2943 9.58932C72.6831 9.95286 72.8775 10.4956 72.8775 11.2164V14.1581Z" fill="white"/>
<path id="l" d="M75.982 14.1596H74.8574V6.99609H75.982V14.1596Z" fill="white"/>
<path id="o_2" d="M82.6094 11.663C82.6094 12.4182 82.3871 13.037 81.9424 13.5224C81.4762 14.0214 80.8576 14.2703 80.0875 14.2703C79.3431 14.2703 78.7513 14.0318 78.3109 13.5526C77.8706 13.0745 77.6504 12.4714 77.6504 11.7443C77.6504 10.9839 77.877 10.3599 78.3324 9.87552C78.7878 9.39115 79.4001 9.14844 80.1702 9.14844C80.9145 9.14844 81.5106 9.38698 81.9639 9.8651C82.3935 10.3297 82.6094 10.9297 82.6094 11.663ZM81.4408 11.6984C81.4408 11.2453 81.3398 10.8568 81.139 10.5328C80.9038 10.1411 80.5665 9.94531 80.1304 9.94531C79.6772 9.94531 79.3335 10.1411 79.0982 10.5328C78.8963 10.8568 78.7964 11.2516 78.7964 11.7182C78.7964 12.1714 78.8974 12.5599 79.0982 12.8839C79.3421 13.2755 79.6815 13.4714 80.1197 13.4714C80.5493 13.4714 80.8855 13.2724 81.1282 12.8734C81.3377 12.5432 81.4408 12.1516 81.4408 11.6984Z" fill="white"/>
<path id="a" d="M88.0571 14.1589H87.0463L86.9626 13.5932H86.9314C86.5856 14.0443 86.0926 14.2703 85.4524 14.2703C84.9745 14.2703 84.5878 14.1214 84.2967 13.8255C84.0325 13.5568 83.9004 13.2224 83.9004 12.8255C83.9004 12.2255 84.1582 11.7682 84.6769 11.4516C85.1946 11.1349 85.9229 10.9797 86.8605 10.987V10.8953C86.8605 10.2484 86.5104 9.92552 85.809 9.92552C85.3096 9.92552 84.8692 10.0474 84.489 10.2891L84.2602 9.5724C84.7306 9.2901 85.3117 9.14844 85.997 9.14844C87.3202 9.14844 87.984 9.82552 87.984 11.1797V12.988C87.984 13.4786 88.0087 13.8693 88.0571 14.1589ZM86.8885 12.4714V11.7141C85.6468 11.6932 85.026 12.0234 85.026 12.7036C85.026 12.9599 85.0969 13.1516 85.2419 13.2797C85.3869 13.4078 85.5716 13.4714 85.7918 13.4714C86.0389 13.4714 86.2698 13.3953 86.4803 13.2443C86.6919 13.0922 86.8219 12.8995 86.8702 12.663C86.882 12.6099 86.8885 12.5453 86.8885 12.4714Z" fill="white"/>
<path id="d" d="M94.4525 14.1596H93.4536L93.4009 13.3711H93.3698C93.0508 13.9711 92.5073 14.2711 91.7437 14.2711C91.1336 14.2711 90.6255 14.0388 90.2228 13.5742C89.82 13.1096 89.6191 12.5065 89.6191 11.7659C89.6191 10.9711 89.8372 10.3273 90.2754 9.83568C90.6997 9.37734 91.2195 9.14818 91.8382 9.14818C92.5181 9.14818 92.9939 9.37005 93.2645 9.81484H93.286V6.99609H94.4127V12.8367C94.4127 13.3148 94.4256 13.7555 94.4525 14.1596ZM93.286 12.0888V11.2701C93.286 11.1284 93.2753 11.0138 93.2549 10.9263C93.1915 10.6638 93.0551 10.443 92.8478 10.2648C92.6384 10.0867 92.3859 9.99714 92.0949 9.99714C91.6749 9.99714 91.3462 10.1586 91.1046 10.4826C90.8651 10.8065 90.7437 11.2201 90.7437 11.7253C90.7437 12.2107 90.8586 12.6044 91.0895 12.9076C91.3334 13.2305 91.662 13.3919 92.0734 13.3919C92.4429 13.3919 92.7382 13.2576 92.9627 12.9878C93.1797 12.7388 93.286 12.4388 93.286 12.0888Z" fill="white"/>
<path id="o_3" d="M104.08 11.663C104.08 12.4182 103.858 13.037 103.413 13.5224C102.947 14.0214 102.33 14.2703 101.558 14.2703C100.816 14.2703 100.224 14.0318 99.7817 13.5526C99.3413 13.0745 99.1211 12.4714 99.1211 11.7443C99.1211 10.9839 99.3477 10.3599 99.8031 9.87552C100.259 9.39115 100.871 9.14844 101.643 9.14844C102.385 9.14844 102.983 9.38698 103.435 9.8651C103.864 10.3297 104.08 10.9297 104.08 11.663ZM102.914 11.6984C102.914 11.2453 102.813 10.8568 102.612 10.5328C102.374 10.1411 102.039 9.94531 101.601 9.94531C101.15 9.94531 100.806 10.1411 100.569 10.5328C100.367 10.8568 100.267 11.2516 100.267 11.7182C100.267 12.1714 100.368 12.5599 100.569 12.8839C100.813 13.2755 101.152 13.4714 101.59 13.4714C102.02 13.4714 102.358 13.2724 102.601 12.8734C102.808 12.5432 102.914 12.1516 102.914 11.6984Z" fill="white"/>
<path id="n_2" d="M110.132 14.1581H109.008V11.3456C109.008 10.4789 108.668 10.0456 107.986 10.0456C107.652 10.0456 107.383 10.1643 107.174 10.4029C106.966 10.6414 106.862 10.9227 106.862 11.2445V14.157H105.735V10.6508C105.735 10.2195 105.722 9.75182 105.695 9.24557H106.683L106.736 10.0133H106.767C106.899 9.77474 107.095 9.57787 107.35 9.42057C107.657 9.23724 107.997 9.14453 108.372 9.14453C108.843 9.14453 109.237 9.29245 109.549 9.58932C109.939 9.95286 110.132 10.4956 110.132 11.2164V14.1581Z" fill="white"/>
<path id="t" d="M117.707 10.068H116.467V12.4534C116.467 13.0596 116.687 13.3628 117.123 13.3628C117.325 13.3628 117.493 13.3461 117.625 13.3117L117.654 14.1398C117.432 14.2211 117.14 14.2617 116.78 14.2617C116.335 14.2617 115.989 14.1305 115.739 13.868C115.488 13.6055 115.363 13.1638 115.363 12.544V10.068H114.623V9.25026H115.363V8.35026L116.466 8.02734V9.24922H117.706V10.068H117.707Z" fill="white"/>
<path id="h" d="M123.667 14.1596H122.54V11.368C122.54 10.4878 122.201 10.0471 121.521 10.0471C120.999 10.0471 120.642 10.3023 120.447 10.8128C120.413 10.9201 120.394 11.0513 120.394 11.2055V14.1586H119.27V6.99609H120.394V9.95547H120.416C120.77 9.41693 121.278 9.14818 121.936 9.14818C122.403 9.14818 122.788 9.29609 123.094 9.59297C123.476 9.96276 123.667 10.5128 123.667 11.2398V14.1596Z" fill="white"/>
<path id="e" d="M129.814 11.4729C129.814 11.6687 129.799 11.8333 129.772 11.9677H126.396C126.411 12.4531 126.572 12.8229 126.885 13.0792C127.171 13.3083 127.539 13.4229 127.99 13.4229C128.49 13.4229 128.945 13.3458 129.355 13.1906L129.531 13.949C129.051 14.151 128.486 14.2521 127.832 14.2521C127.048 14.2521 126.431 14.0281 125.984 13.5802C125.535 13.1323 125.312 12.5312 125.312 11.7771C125.312 11.0365 125.52 10.4198 125.938 9.92812C126.374 9.40312 126.963 9.14062 127.708 9.14062C128.436 9.14062 128.989 9.40312 129.363 9.92812C129.665 10.3448 129.814 10.8604 129.814 11.4729ZM128.74 11.1906C128.748 10.8667 128.674 10.5875 128.522 10.3521C128.326 10.049 128.029 9.89687 127.626 9.89687C127.259 9.89687 126.959 10.0448 126.73 10.3417C126.543 10.5781 126.433 10.8604 126.396 11.1906H128.74Z" fill="white"/>
</g>
<g id="App Store">
<path id="A" d="M57.2469 32.9836H54.8077L53.4715 28.9117H48.8272L47.5545 32.9836H45.1797L49.781 19.1211H52.623L57.2469 32.9836ZM53.0688 27.2034L51.8604 23.5836C51.7326 23.2138 51.4931 22.343 51.1397 20.9721H51.0968C50.9561 21.5617 50.7294 22.4326 50.4179 23.5836L49.2311 27.2034H53.0688Z" fill="white"/>
<path id="p" d="M69.0798 27.8615C69.0798 29.5615 68.6061 30.9052 67.6588 31.8917C66.8103 32.7698 65.7566 33.2083 64.4989 33.2083C63.1413 33.2083 62.166 32.7354 61.572 31.7896H61.5291V37.0552H59.2391V26.2771C59.2391 25.2083 59.2101 24.1115 59.1543 22.9865H61.1682L61.296 24.5708H61.339C62.1026 23.3771 63.2616 22.7812 64.8168 22.7812C66.0327 22.7812 67.0477 23.2469 67.8597 24.1792C68.6738 25.1125 69.0798 26.3396 69.0798 27.8615ZM66.7469 27.9427C66.7469 26.9698 66.5214 26.1677 66.0681 25.5365C65.573 24.8781 64.9081 24.549 64.0746 24.549C63.5097 24.549 62.9963 24.7323 62.5376 25.0937C62.0779 25.4583 61.7772 25.9344 61.6365 26.524C61.5656 26.799 61.5301 27.024 61.5301 27.201V28.8677C61.5301 29.5948 61.76 30.2083 62.2197 30.7094C62.6794 31.2104 63.2766 31.4604 64.0113 31.4604C64.8737 31.4604 65.545 31.1375 66.0251 30.4938C66.5063 29.849 66.7469 28.999 66.7469 27.9427Z" fill="white"/>
<path id="p_2" d="M80.9342 27.8615C80.9342 29.5615 80.4605 30.9052 79.5121 31.8917C78.6647 32.7698 77.611 33.2083 76.3533 33.2083C74.9957 33.2083 74.0204 32.7354 73.4275 31.7896H73.3845V37.0552H71.0946V26.2771C71.0946 25.2083 71.0656 24.1115 71.0098 22.9865H73.0237L73.1515 24.5708H73.1944C73.957 23.3771 75.116 22.7812 76.6723 22.7812C77.8871 22.7812 78.9021 23.2469 79.7162 24.1792C80.5271 25.1125 80.9342 26.3396 80.9342 27.8615ZM78.6013 27.9427C78.6013 26.9698 78.3747 26.1677 77.9214 25.5365C77.4263 24.8781 76.7636 24.549 75.929 24.549C75.363 24.549 74.8507 24.7323 74.391 25.0937C73.9312 25.4583 73.6316 25.9344 73.4909 26.524C73.4211 26.799 73.3845 27.024 73.3845 27.201V28.8677C73.3845 29.5948 73.6144 30.2083 74.0719 30.7094C74.5317 31.2094 75.1288 31.4604 75.8657 31.4604C76.7281 31.4604 77.3994 31.1375 77.8795 30.4938C78.3607 29.849 78.6013 28.999 78.6013 27.9427Z" fill="white"/>
<path id="S" d="M94.1879 29.0961C94.1879 30.2753 93.7658 31.2346 92.9183 31.9753C91.9871 32.7846 90.6907 33.1888 89.0248 33.1888C87.4867 33.1888 86.2537 32.9013 85.3203 32.3253L85.8509 30.4742C86.8562 31.0638 87.9593 31.3596 89.1612 31.3596C90.0237 31.3596 90.695 31.1701 91.1772 30.793C91.6574 30.4159 91.8969 29.9096 91.8969 29.2784C91.8969 28.7159 91.6992 28.2419 91.3029 27.8576C90.9087 27.4732 90.2503 27.1159 89.3309 26.7857C86.8283 25.8805 85.5781 24.5544 85.5781 22.8107C85.5781 21.6711 86.0163 20.7367 86.8938 20.0096C87.7681 19.2815 88.9346 18.918 90.3932 18.918C91.6939 18.918 92.7744 19.1378 93.6369 19.5763L93.0644 21.3867C92.2588 20.9617 91.348 20.7492 90.3287 20.7492C89.5232 20.7492 88.8938 20.9419 88.4427 21.3253C88.0614 21.668 87.8702 22.0857 87.8702 22.5805C87.8702 23.1284 88.0882 23.5815 88.5264 23.9378C88.9077 24.2669 89.6005 24.6232 90.6058 25.0076C91.8357 25.4878 92.7389 26.0492 93.32 26.693C93.8989 27.3346 94.1879 28.1378 94.1879 29.0961Z" fill="white"/>
<path id="t_2" d="M101.759 24.6534H99.2352V29.5065C99.2352 30.7409 99.6799 31.3576 100.571 31.3576C100.981 31.3576 101.32 31.3232 101.589 31.2544L101.652 32.9409C101.201 33.1044 100.607 33.1867 99.8711 33.1867C98.9667 33.1867 98.26 32.919 97.7498 32.3846C97.2418 31.8492 96.9861 30.9513 96.9861 29.6898V24.6513H95.4824V22.9846H96.9861V21.1544L99.2352 20.4961V22.9846H101.759V24.6534Z" fill="white"/>
<path id="o_4" d="M113.148 27.9049C113.148 29.4414 112.695 30.7029 111.79 31.6893C110.842 32.7049 109.583 33.2112 108.014 33.2112C106.502 33.2112 105.298 32.7247 104.4 31.7518C103.502 30.7789 103.053 29.5508 103.053 28.0706C103.053 26.5216 103.515 25.2529 104.442 24.2664C105.366 23.2789 106.614 22.7852 108.184 22.7852C109.696 22.7852 110.913 23.2716 111.831 24.2456C112.71 25.1904 113.148 26.4102 113.148 27.9049ZM110.772 27.9768C110.772 27.0549 110.569 26.2643 110.158 25.6049C109.678 24.807 108.991 24.4091 108.102 24.4091C107.181 24.4091 106.482 24.8081 106.002 25.6049C105.591 26.2654 105.388 27.0685 105.388 28.0185C105.388 28.9404 105.591 29.731 106.002 30.3893C106.497 31.1872 107.189 31.5852 108.082 31.5852C108.956 31.5852 109.642 31.1789 110.137 30.3685C110.559 29.6966 110.772 28.8977 110.772 27.9768Z" fill="white"/>
<path id="r" d="M120.592 24.9396C120.366 24.899 120.124 24.8781 119.871 24.8781C119.065 24.8781 118.442 25.1729 118.004 25.7635C117.623 26.2844 117.431 26.9427 117.431 27.7375V32.9823H115.143L115.164 26.1344C115.164 24.9823 115.135 23.9333 115.078 22.9875H117.073L117.156 24.9H117.22C117.462 24.2427 117.843 23.7135 118.365 23.3167C118.875 22.9594 119.426 22.7812 120.02 22.7812C120.232 22.7812 120.423 22.7958 120.592 22.8219V24.9396Z" fill="white"/>
<path id="e_2" d="M130.834 27.5146C130.834 27.9125 130.807 28.2479 130.75 28.5219H123.88C123.907 29.5094 124.239 30.2646 124.877 30.7854C125.456 31.251 126.204 31.4844 127.124 31.4844C128.141 31.4844 129.069 31.3271 129.903 31.0115L130.262 32.5531C129.287 32.9656 128.135 33.1708 126.807 33.1708C125.209 33.1708 123.954 32.7146 123.041 31.8031C122.13 30.8917 121.674 29.6677 121.674 28.1323C121.674 26.625 122.098 25.3698 122.948 24.3687C123.837 23.3 125.039 22.7656 126.551 22.7656C128.037 22.7656 129.161 23.3 129.925 24.3687C130.53 25.2177 130.834 26.2677 130.834 27.5146ZM128.65 26.9385C128.665 26.2802 128.516 25.7115 128.205 25.2312C127.809 24.6135 127.2 24.3052 126.38 24.3052C125.632 24.3052 125.023 24.6062 124.558 25.2104C124.176 25.6906 123.95 26.2667 123.88 26.9375H128.65V26.9385Z" fill="white"/>
</g>
</g>
</svg>
