<svg width="208" height="208" viewBox="0 0 208 208" fill="none" xmlns="http://www.w3.org/2000/svg">
<g filter="url(#filter0_d_2033_13838)">
<path d="M204 100C204 155.228 159.228 200 104 200C48.7715 200 4 155.228 4 100C4 44.7715 48.7715 0 104 0C159.228 0 204 44.7715 204 100Z" fill="#015AFF"/>
<path d="M105.186 42.025C106.521 42.3234 107.247 42.8894 108.016 44.0229C108.576 45.1312 109.001 46.264 109.44 47.4257C112.558 55.2691 119.384 60.0955 126.189 64.5678C128.783 66.2752 131.262 68.0393 133.59 70.1018C133.966 70.4306 134.342 70.7594 134.729 71.0981C139.977 75.99 143.729 83.0716 143.992 90.3451C144.178 101.462 141.172 111.588 134.385 120.525C132.968 121.891 131.719 122.196 129.78 122.162C127.833 121.639 127.113 121.161 125.97 119.495C125.645 118.083 125.643 116.867 125.97 115.454C126.525 114.684 126.525 114.684 127.175 113.967C127.993 112.94 128.215 112.502 128.187 111.171C126.48 103.341 121.846 96.2956 115.11 91.9473C113.779 91.1542 112.423 90.4578 111.035 89.7715C110.556 89.5342 110.077 89.2967 109.584 89.0522C109.222 88.8739 108.86 88.6958 108.487 88.5122C108.489 88.7872 108.491 89.0622 108.493 89.3456C108.543 96.0588 108.58 102.772 108.603 109.485C108.615 112.732 108.63 115.978 108.656 119.225C108.679 122.057 108.693 124.889 108.698 127.721C108.701 129.218 108.709 130.715 108.724 132.213C108.74 133.89 108.743 135.568 108.742 137.246C108.75 137.734 108.758 138.223 108.766 138.726C108.737 143.119 107.448 147.43 104.351 150.666C97.8083 156.513 90.807 157.567 82.3815 157.294C76.5983 156.919 71.6222 153.904 67.6852 149.778C64.4364 145.767 63.684 141.611 64.1078 136.558C64.8053 133.905 66.0125 131.539 67.694 129.374C67.8783 129.131 68.0626 128.889 68.2526 128.639C69.9837 126.635 72.0342 125.478 74.3621 124.294C74.6578 124.143 74.9535 123.991 75.2582 123.835C78.8098 122.112 82.2914 121.573 86.2134 121.6C86.7692 121.603 86.7692 121.603 87.3363 121.606C91.1066 121.675 94.4262 122.305 97.8051 124.015C98.2878 124.258 98.2878 124.258 98.7802 124.507C99.0249 124.631 99.2695 124.756 99.5215 124.884C99.5194 124.471 99.5174 124.059 99.5153 123.634C99.4658 113.61 99.4287 103.585 99.4054 93.5606C99.3938 88.7126 99.3781 83.8649 99.3525 79.017C99.3301 74.7921 99.3157 70.5672 99.3106 66.3422C99.3078 64.1046 99.3008 61.8673 99.2846 59.6298C99.2694 57.5242 99.2646 55.4188 99.268 53.3131C99.2674 52.54 99.263 51.7669 99.2543 50.9938C99.2432 49.9384 99.2458 48.8838 99.252 47.8284C99.2499 47.2377 99.2478 46.6471 99.2458 46.0385C99.8538 42.6615 102.1 41.8372 105.186 42.025Z" fill="white"/>
</g>
<defs>
<filter id="filter0_d_2033_13838" x="0" y="0" width="208" height="208" filterUnits="userSpaceOnUse" color-interpolation-filters="sRGB">
<feFlood flood-opacity="0" result="BackgroundImageFix"/>
<feColorMatrix in="SourceAlpha" type="matrix" values="0 0 0 0 0 0 0 0 0 0 0 0 0 0 0 0 0 0 127 0" result="hardAlpha"/>
<feOffset dy="4"/>
<feGaussianBlur stdDeviation="2"/>
<feComposite in2="hardAlpha" operator="out"/>
<feColorMatrix type="matrix" values="0 0 0 0 0 0 0 0 0 0 0 0 0 0 0 0 0 0 0.25 0"/>
<feBlend mode="normal" in2="BackgroundImageFix" result="effect1_dropShadow_2033_13838"/>
<feBlend mode="normal" in="SourceGraphic" in2="effect1_dropShadow_2033_13838" result="shape"/>
</filter>
</defs>
</svg>
