<svg width="572" height="145" viewBox="0 0 572 145" fill="none" xmlns="http://www.w3.org/2000/svg">
<path d="M51.4828 0.0312639C53.1513 0.404202 54.0583 1.11173 55.02 2.52857C55.7194 3.91401 56.2511 5.33004 56.7995 6.7821C60.6976 16.5864 69.23 22.6194 77.736 28.2098C80.9783 30.344 84.0773 32.5491 86.9881 35.1273C87.4576 35.5382 87.9271 35.9492 88.4109 36.3726C94.9713 42.4875 99.6616 51.3395 99.9898 60.4314C100.223 74.3271 96.4653 86.9848 87.9818 98.1562C86.2106 99.864 84.6488 100.245 82.2252 100.202C79.7916 99.5489 78.8915 98.9517 77.4622 96.8692C77.0562 95.1032 77.0543 93.5841 77.4622 91.8176C78.1561 90.855 78.1561 90.855 78.9682 89.9583C79.9917 88.6752 80.2691 88.1278 80.2333 86.4634C78.1001 76.6764 72.3073 67.8695 63.8873 62.4341C62.2237 61.4428 60.5292 60.5723 58.7936 59.7144C58.1951 59.4177 57.5966 59.1209 56.98 58.8152C56.5275 58.5924 56.075 58.3697 55.6088 58.1402C55.6114 58.484 55.614 58.8278 55.6166 59.182C55.6787 67.5735 55.725 75.965 55.754 84.3567C55.7684 88.415 55.788 92.4731 55.8202 96.5313C55.8482 100.071 55.8662 103.611 55.8724 107.151C55.876 109.023 55.886 110.894 55.905 112.766C55.9255 114.863 55.9282 116.96 55.9269 119.057C55.9369 119.668 55.947 120.279 55.9574 120.908C55.921 126.399 54.3096 131.788 50.4388 135.833C42.2604 143.141 33.5087 144.459 22.9769 144.118C15.7479 143.649 9.52777 139.88 4.60651 134.723C0.545501 129.709 -0.394972 124.514 0.1347 118.198C1.00662 114.881 2.51567 111.924 4.61746 109.218C4.84788 108.914 5.0783 108.611 5.3157 108.299C7.47958 105.794 10.0427 104.347 12.9526 102.868C13.3222 102.679 13.6919 102.489 14.0727 102.294C18.5123 100.14 22.8643 99.4659 27.7667 99.5002C28.4615 99.5038 28.4615 99.5038 29.1704 99.5074C33.8833 99.5939 38.0327 100.381 42.2564 102.519C42.8598 102.823 42.8598 102.823 43.4753 103.134C43.7811 103.289 44.0869 103.445 44.4019 103.605C44.3993 103.089 44.3968 102.574 44.3941 102.043C44.3322 89.5126 44.2859 76.9817 44.2568 64.4507C44.2423 58.3908 44.2226 52.3311 44.1906 46.2713C44.1626 40.9901 44.1446 35.709 44.1383 30.4278C44.1347 27.6308 44.126 24.8341 44.1057 22.0372C44.0867 19.4052 44.0808 16.7735 44.085 14.1414C44.0843 13.175 44.0787 12.2086 44.0679 11.2422C44.054 9.92294 44.0573 8.60478 44.065 7.28546C44.0624 6.54714 44.0598 5.80882 44.0572 5.04813C44.8173 0.826926 47.6253 -0.203441 51.4828 0.0312639Z" fill="#015AFF"/>
<path d="M134.392 115V61.8H144.472V115H134.392ZM170.344 115V82.856C170.344 78.8987 169.112 75.8 166.648 73.56C164.259 71.2453 161.235 70.088 157.576 70.088C155.112 70.088 152.909 70.6107 150.968 71.656C149.027 72.7013 147.459 74.1573 146.264 76.024C145.069 77.8907 144.472 80.1307 144.472 82.744L140.328 80.728C140.328 76.696 141.187 73.1867 142.904 70.2C144.696 67.2133 147.123 64.8987 150.184 63.256C153.245 61.5387 156.68 60.68 160.488 60.68C164.221 60.68 167.581 61.5013 170.568 63.144C173.629 64.7867 176.019 67.1013 177.736 70.088C179.528 73.0747 180.424 76.6213 180.424 80.728V115H170.344ZM206.296 115V82.856C206.296 78.8987 205.064 75.8 202.6 73.56C200.211 71.2453 197.224 70.088 193.64 70.088C191.176 70.088 188.936 70.6107 186.92 71.656C184.979 72.7013 183.411 74.1573 182.216 76.024C181.021 77.8907 180.424 80.1307 180.424 82.744L174.712 80.728C174.936 76.6213 176.019 73.112 177.96 70.2C179.976 67.2133 182.552 64.8987 185.688 63.256C188.824 61.5387 192.259 60.68 195.992 60.68C199.875 60.68 203.347 61.5013 206.408 63.144C209.469 64.7867 211.896 67.1013 213.688 70.088C215.555 73.0747 216.488 76.6587 216.488 80.84V115H206.296Z" fill="#015AFF"/>
<path d="M247.676 115.448L224.605 61.8H235.805L252.941 103.8H249.357L267.388 61.8H278.589L253.725 115.448H247.676ZM232.445 137.288L248.124 105.144L253.725 115.448L243.645 137.288H232.445Z" fill="#015AFF"/>
<path d="M295.037 115V39.512H305.117V115H295.037ZM281.933 70.984V61.8H318.221V70.984H281.933Z" fill="#015AFF"/>
<path d="M349.487 116.12C345.156 116.12 341.236 115.149 337.727 113.208C334.292 111.192 331.604 108.429 329.663 104.92C327.722 101.411 326.751 97.3413 326.751 92.712V61.8H336.831V92.264C336.831 95.176 337.316 97.7147 338.287 99.88C339.332 101.971 340.826 103.576 342.767 104.696C344.708 105.816 346.986 106.376 349.599 106.376C353.556 106.376 356.655 105.144 358.895 102.68C361.135 100.141 362.255 96.6693 362.255 92.264V61.8H372.335V92.712C372.335 97.3413 371.364 101.411 369.423 104.92C367.482 108.429 364.794 111.192 361.359 113.208C357.999 115.149 354.042 116.12 349.487 116.12Z" fill="#015AFF"/>
<path d="M423.477 115V83.976C423.477 79.944 422.208 76.6213 419.669 74.008C417.13 71.3947 413.845 70.088 409.813 70.088C407.125 70.088 404.736 70.6853 402.645 71.88C400.554 73.0747 398.912 74.7173 397.717 76.808C396.522 78.8987 395.925 81.288 395.925 83.976L391.781 81.624C391.781 77.592 392.677 74.008 394.469 70.872C396.261 67.736 398.762 65.272 401.973 63.48C405.184 61.6133 408.805 60.68 412.837 60.68C416.869 60.68 420.416 61.688 423.477 63.704C426.613 65.72 429.077 68.3707 430.869 71.656C432.661 74.8667 433.557 78.3013 433.557 81.96V115H423.477ZM385.845 115V61.8H395.925V115H385.845Z" fill="#015AFF"/>
<path d="M471.845 116.12C466.543 116.12 461.765 114.925 457.509 112.536C453.253 110.072 449.892 106.749 447.428 102.568C444.964 98.3867 443.733 93.6453 443.733 88.344C443.733 83.1173 444.927 78.4133 447.316 74.232C449.78 70.0507 453.066 66.7653 457.172 64.376C461.354 61.912 466.02 60.68 471.172 60.68C476.1 60.68 480.431 61.8 484.164 64.04C487.972 66.28 490.922 69.3787 493.013 73.336C495.178 77.2933 496.26 81.7733 496.26 86.776C496.26 87.5227 496.223 88.344 496.148 89.24C496.074 90.0613 495.925 91.032 495.701 92.152H450.789V83.752H490.324L486.629 87C486.629 83.416 485.994 80.392 484.725 77.928C483.455 75.3893 481.663 73.448 479.349 72.104C477.034 70.6853 474.234 69.976 470.949 69.976C467.514 69.976 464.49 70.7227 461.876 72.216C459.263 73.7093 457.247 75.8 455.828 78.488C454.41 81.176 453.701 84.3493 453.701 88.008C453.701 91.7413 454.447 95.0267 455.94 97.864C457.434 100.627 459.562 102.792 462.324 104.36C465.087 105.853 468.261 106.6 471.845 106.6C474.831 106.6 477.557 106.077 480.021 105.032C482.559 103.987 484.725 102.419 486.517 100.328L493.013 106.936C490.474 109.923 487.338 112.2 483.604 113.768C479.946 115.336 476.026 116.12 471.845 116.12Z" fill="#015AFF"/>
<path d="M524.163 116.12C521.177 116.12 518.339 115.747 515.651 115C513.038 114.179 510.611 113.059 508.371 111.64C506.131 110.147 504.19 108.392 502.547 106.376L509.043 99.88C510.985 102.269 513.225 104.061 515.763 105.256C518.302 106.376 521.139 106.936 524.275 106.936C527.411 106.936 529.838 106.413 531.555 105.368C533.273 104.248 534.131 102.717 534.131 100.776C534.131 98.8347 533.422 97.3413 532.003 96.296C530.659 95.176 528.905 94.28 526.739 93.608C524.574 92.8613 522.259 92.152 519.795 91.48C517.406 90.7333 515.129 89.8 512.963 88.68C510.798 87.56 509.006 86.0293 507.587 84.088C506.243 82.1467 505.571 79.5707 505.571 76.36C505.571 73.1493 506.355 70.3867 507.923 68.072C509.491 65.6827 511.657 63.8533 514.419 62.584C517.257 61.3147 520.654 60.68 524.611 60.68C528.793 60.68 532.489 61.4267 535.699 62.92C538.985 64.3387 541.673 66.504 543.763 69.416L537.267 75.912C535.774 73.9707 533.907 72.4773 531.667 71.432C529.502 70.3867 527.038 69.864 524.275 69.864C521.363 69.864 519.123 70.3867 517.555 71.432C516.062 72.4027 515.315 73.784 515.315 75.576C515.315 77.368 515.987 78.7493 517.331 79.72C518.675 80.6907 520.43 81.512 522.595 82.184C524.835 82.856 527.15 83.5653 529.539 84.312C531.929 84.984 534.206 85.9173 536.371 87.112C538.537 88.3067 540.291 89.912 541.635 91.928C543.054 93.944 543.763 96.5947 543.763 99.88C543.763 104.883 541.971 108.84 538.387 111.752C534.878 114.664 530.137 116.12 524.163 116.12Z" fill="#015AFF"/>
<path d="M563.896 116.12C561.806 116.12 560.051 115.411 558.632 113.992C557.288 112.499 556.616 110.744 556.616 108.728C556.616 106.637 557.288 104.92 558.632 103.576C560.051 102.157 561.806 101.448 563.896 101.448C565.987 101.448 567.704 102.157 569.048 103.576C570.467 104.92 571.176 106.637 571.176 108.728C571.176 110.744 570.467 112.499 569.048 113.992C567.704 115.411 565.987 116.12 563.896 116.12Z" fill="#015AFF"/>
</svg>
