<svg width="493" height="153" viewBox="0 0 493 153" fill="none" xmlns="http://www.w3.org/2000/svg">
<g filter="url(#filter0_d_2033_13833)">
<path d="M55.4828 0.0312639C57.1513 0.404202 58.0583 1.11174 59.02 2.52857C59.7194 3.91401 60.2511 5.33004 60.7995 6.7821C64.6976 16.5864 73.23 22.6194 81.736 28.2098C84.9783 30.344 88.0773 32.5491 90.9881 35.1273C91.4576 35.5382 91.9271 35.9492 92.4109 36.3726C98.9713 42.4875 103.662 51.3395 103.99 60.4314C104.223 74.3271 100.465 86.9848 91.9818 98.1562C90.2106 99.864 88.6488 100.245 86.2252 100.202C83.7916 99.5489 82.8915 98.9517 81.4622 96.8692C81.0561 95.1032 81.0543 93.5841 81.4622 91.8176C82.1561 90.855 82.1561 90.8551 82.9682 89.9583C83.9917 88.6753 84.2691 88.1278 84.2333 86.4634C82.1001 76.6764 76.3073 67.8695 67.8873 62.4341C66.2237 61.4428 64.5292 60.5723 62.7936 59.7144C62.1951 59.4177 61.5966 59.1209 60.98 58.8152C60.5275 58.5924 60.075 58.3697 59.6088 58.1402C59.6114 58.484 59.614 58.8278 59.6166 59.182C59.6787 67.5735 59.725 75.965 59.754 84.3567C59.7684 88.4149 59.788 92.4731 59.8202 96.5313C59.8482 100.071 59.8662 103.611 59.8724 107.151C59.876 109.023 59.886 110.894 59.905 112.766C59.9255 114.863 59.9282 116.96 59.9269 119.057C59.9369 119.668 59.947 120.279 59.9574 120.908C59.921 126.399 58.3096 131.788 54.4388 135.833C46.2604 143.141 37.5087 144.459 26.9769 144.118C19.7479 143.649 13.5278 139.88 8.60651 134.723C4.5455 129.709 3.60503 124.514 4.1347 118.198C5.00662 114.881 6.51567 111.924 8.61746 109.218C8.84788 108.914 9.0783 108.611 9.3157 108.299C11.4796 105.794 14.0427 104.347 16.9526 102.868C17.3222 102.679 17.6919 102.489 18.0727 102.294C22.5123 100.14 26.8643 99.4659 31.7667 99.5002C32.4615 99.5038 32.4615 99.5038 33.1704 99.5074C37.8833 99.5939 42.0327 100.381 46.2564 102.519C46.8598 102.823 46.8598 102.823 47.4753 103.134C47.7811 103.289 48.0869 103.445 48.4019 103.605C48.3993 103.089 48.3967 102.574 48.3941 102.043C48.3322 89.5126 48.2859 76.9817 48.2568 64.4507C48.2423 58.3908 48.2226 52.3311 48.1906 46.2713C48.1626 40.9901 48.1446 35.709 48.1383 30.4278C48.1347 27.6308 48.126 24.8341 48.1057 22.0372C48.0867 19.4052 48.0808 16.7735 48.085 14.1414C48.0843 13.175 48.0787 12.2086 48.0679 11.2422C48.054 9.92294 48.0573 8.60478 48.065 7.28546C48.0624 6.54714 48.0598 5.80882 48.0572 5.04813C48.8173 0.826926 51.6253 -0.203441 55.4828 0.0312639Z" fill="white"/>
<path d="M126.072 120V76.3H134.352V120H126.072ZM155.604 120V93.596C155.604 90.3453 154.592 87.8 152.568 85.96C150.605 84.0587 148.121 83.108 145.116 83.108C143.092 83.108 141.283 83.5373 139.688 84.396C138.093 85.2547 136.805 86.4507 135.824 87.984C134.843 89.5173 134.352 91.3573 134.352 93.504L130.948 91.848C130.948 88.536 131.653 85.6533 133.064 83.2C134.536 80.7467 136.529 78.8453 139.044 77.496C141.559 76.0853 144.38 75.38 147.508 75.38C150.575 75.38 153.335 76.0547 155.788 77.404C158.303 78.7533 160.265 80.6547 161.676 83.108C163.148 85.5613 163.884 88.4747 163.884 91.848V120H155.604ZM185.136 120V93.596C185.136 90.3453 184.124 87.8 182.1 85.96C180.137 84.0587 177.684 83.108 174.74 83.108C172.716 83.108 170.876 83.5373 169.22 84.396C167.625 85.2547 166.337 86.4507 165.356 87.984C164.375 89.5173 163.884 91.3573 163.884 93.504L159.192 91.848C159.376 88.4747 160.265 85.592 161.86 83.2C163.516 80.7467 165.632 78.8453 168.208 77.496C170.784 76.0853 173.605 75.38 176.672 75.38C179.861 75.38 182.713 76.0547 185.228 77.404C187.743 78.7533 189.736 80.6547 191.208 83.108C192.741 85.5613 193.508 88.5053 193.508 91.94V120H185.136ZM219.127 120.368L200.175 76.3H209.375L223.451 110.8H220.507L235.319 76.3H244.519L224.095 120.368H219.127ZM206.615 138.308L219.495 111.904L224.095 120.368L215.815 138.308H206.615ZM258.03 120V57.992H266.31V120H258.03ZM247.266 83.844V76.3H277.074V83.844H247.266ZM302.757 120.92C299.2 120.92 295.98 120.123 293.097 118.528C290.276 116.872 288.068 114.603 286.473 111.72C284.879 108.837 284.081 105.495 284.081 101.692V76.3H292.361V101.324C292.361 103.716 292.76 105.801 293.557 107.58C294.416 109.297 295.643 110.616 297.237 111.536C298.832 112.456 300.703 112.916 302.849 112.916C306.1 112.916 308.645 111.904 310.485 109.88C312.325 107.795 313.245 104.943 313.245 101.324V76.3H321.525V101.692C321.525 105.495 320.728 108.837 319.133 111.72C317.539 114.603 315.331 116.872 312.509 118.528C309.749 120.123 306.499 120.92 302.757 120.92ZM363.535 120V94.516C363.535 91.204 362.492 88.4747 360.407 86.328C358.321 84.1813 355.623 83.108 352.311 83.108C350.103 83.108 348.14 83.5987 346.423 84.58C344.705 85.5613 343.356 86.9107 342.375 88.628C341.393 90.3453 340.903 92.308 340.903 94.516L337.499 92.584C337.499 89.272 338.235 86.328 339.707 83.752C341.179 81.176 343.233 79.152 345.871 77.68C348.508 76.1467 351.483 75.38 354.795 75.38C358.107 75.38 361.02 76.208 363.535 77.864C366.111 79.52 368.135 81.6973 369.607 84.396C371.079 87.0333 371.815 89.8547 371.815 92.86V120H363.535ZM332.623 120V76.3H340.903V120H332.623ZM403.265 120.92C398.91 120.92 394.985 119.939 391.489 117.976C387.993 115.952 385.233 113.223 383.209 109.788C381.185 106.353 380.173 102.459 380.173 98.104C380.173 93.8107 381.154 89.9467 383.117 86.512C385.141 83.0773 387.84 80.3787 391.213 78.416C394.648 76.392 398.481 75.38 402.713 75.38C406.761 75.38 410.318 76.3 413.385 78.14C416.513 79.98 418.936 82.5253 420.653 85.776C422.432 89.0267 423.321 92.7067 423.321 96.816C423.321 97.4293 423.29 98.104 423.229 98.84C423.168 99.5147 423.045 100.312 422.861 101.232H385.969V94.332H418.445L415.409 97C415.409 94.056 414.888 91.572 413.845 89.548C412.802 87.4627 411.33 85.868 409.429 84.764C407.528 83.5987 405.228 83.016 402.529 83.016C399.708 83.016 397.224 83.6293 395.077 84.856C392.93 86.0827 391.274 87.8 390.109 90.008C388.944 92.216 388.361 94.8227 388.361 97.828C388.361 100.895 388.974 103.593 390.201 105.924C391.428 108.193 393.176 109.972 395.445 111.26C397.714 112.487 400.321 113.1 403.265 113.1C405.718 113.1 407.957 112.671 409.981 111.812C412.066 110.953 413.845 109.665 415.317 107.948L420.653 113.376C418.568 115.829 415.992 117.7 412.925 118.988C409.92 120.276 406.7 120.92 403.265 120.92ZM446.241 120.92C443.788 120.92 441.457 120.613 439.249 120C437.103 119.325 435.109 118.405 433.269 117.24C431.429 116.013 429.835 114.572 428.485 112.916L433.821 107.58C435.416 109.543 437.256 111.015 439.341 111.996C441.427 112.916 443.757 113.376 446.333 113.376C448.909 113.376 450.903 112.947 452.313 112.088C453.724 111.168 454.429 109.911 454.429 108.316C454.429 106.721 453.847 105.495 452.681 104.636C451.577 103.716 450.136 102.98 448.357 102.428C446.579 101.815 444.677 101.232 442.653 100.68C440.691 100.067 438.82 99.3 437.041 98.38C435.263 97.46 433.791 96.2027 432.625 94.608C431.521 93.0133 430.969 90.8973 430.969 88.26C430.969 85.6227 431.613 83.3533 432.901 81.452C434.189 79.4893 435.968 77.9867 438.237 76.944C440.568 75.9013 443.359 75.38 446.609 75.38C450.044 75.38 453.08 75.9933 455.717 77.22C458.416 78.3853 460.624 80.164 462.341 82.556L457.005 87.892C455.779 86.2973 454.245 85.0707 452.405 84.212C450.627 83.3533 448.603 82.924 446.333 82.924C443.941 82.924 442.101 83.3533 440.813 84.212C439.587 85.0093 438.973 86.144 438.973 87.616C438.973 89.088 439.525 90.2227 440.629 91.02C441.733 91.8173 443.175 92.492 444.953 93.044C446.793 93.596 448.695 94.1787 450.657 94.792C452.62 95.344 454.491 96.1107 456.269 97.092C458.048 98.0733 459.489 99.392 460.593 101.048C461.759 102.704 462.341 104.881 462.341 107.58C462.341 111.689 460.869 114.94 457.925 117.332C455.043 119.724 451.148 120.92 446.241 120.92ZM478.879 120.92C477.162 120.92 475.72 120.337 474.555 119.172C473.451 117.945 472.899 116.504 472.899 114.848C472.899 113.131 473.451 111.72 474.555 110.616C475.72 109.451 477.162 108.868 478.879 108.868C480.596 108.868 482.007 109.451 483.111 110.616C484.276 111.72 484.859 113.131 484.859 114.848C484.859 116.504 484.276 117.945 483.111 119.172C482.007 120.337 480.596 120.92 478.879 120.92Z" fill="white"/>
</g>
<defs>
<filter id="filter0_d_2033_13833" x="0" y="0" width="488.859" height="152.167" filterUnits="userSpaceOnUse" color-interpolation-filters="sRGB">
<feFlood flood-opacity="0" result="BackgroundImageFix"/>
<feColorMatrix in="SourceAlpha" type="matrix" values="0 0 0 0 0 0 0 0 0 0 0 0 0 0 0 0 0 0 127 0" result="hardAlpha"/>
<feOffset dy="4"/>
<feGaussianBlur stdDeviation="2"/>
<feComposite in2="hardAlpha" operator="out"/>
<feColorMatrix type="matrix" values="0 0 0 0 0 0 0 0 0 0 0 0 0 0 0 0 0 0 0.25 0"/>
<feBlend mode="normal" in2="BackgroundImageFix" result="effect1_dropShadow_2033_13833"/>
<feBlend mode="normal" in="SourceGraphic" in2="effect1_dropShadow_2033_13833" result="shape"/>
</filter>
</defs>
</svg>
