<svg width="544" height="162" viewBox="0 0 544 162" fill="none" xmlns="http://www.w3.org/2000/svg">
<g filter="url(#filter0_d_2028_13828)">
<path d="M55.4828 9.03126C57.1513 9.4042 58.0583 10.1117 59.02 11.5286C59.7194 12.914 60.2511 14.33 60.7995 15.7821C64.6976 25.5864 73.23 31.6194 81.736 37.2098C84.9783 39.344 88.0773 41.5491 90.9881 44.1273C91.4576 44.5382 91.9271 44.9492 92.4108 45.3726C98.9713 51.4875 103.662 60.3395 103.99 69.4314C104.223 83.3271 100.465 95.9848 91.9818 107.156C90.2106 108.864 88.6488 109.245 86.2252 109.202C83.7916 108.549 82.8915 107.952 81.4622 105.869C81.0561 104.103 81.0543 102.584 81.4622 100.818C82.1561 99.8551 82.1561 99.8551 82.9682 98.9583C83.9917 97.6752 84.2691 97.1278 84.2333 95.4634C82.1001 85.6764 76.3073 76.8695 67.8873 71.4341C66.2237 70.4428 64.5292 69.5723 62.7936 68.7144C62.1951 68.4177 61.5966 68.1209 60.98 67.8152C60.5275 67.5924 60.075 67.3697 59.6088 67.1402C59.6114 67.484 59.614 67.8278 59.6166 68.182C59.6787 76.5735 59.725 84.965 59.754 93.3567C59.7684 97.415 59.788 101.473 59.8202 105.531C59.8482 109.071 59.8662 112.611 59.8724 116.151C59.876 118.023 59.886 119.894 59.905 121.766C59.9255 123.863 59.9282 125.96 59.9269 128.057C59.9369 128.668 59.947 129.279 59.9574 129.908C59.921 135.399 58.3096 140.788 54.4388 144.833C46.2604 152.141 37.5087 153.459 26.9769 153.118C19.7479 152.649 13.5278 148.88 8.60651 143.723C4.5455 138.709 3.60503 133.514 4.1347 127.198C5.00662 123.881 6.51567 120.924 8.61746 118.218C8.84788 117.914 9.0783 117.611 9.3157 117.299C11.4796 114.794 14.0427 113.347 16.9526 111.868C17.3222 111.679 17.6919 111.489 18.0727 111.294C22.5123 109.14 26.8643 108.466 31.7667 108.5C32.4615 108.504 32.4615 108.504 33.1704 108.507C37.8833 108.594 42.0327 109.381 46.2564 111.519C46.8598 111.823 46.8598 111.823 47.4753 112.134C47.7811 112.289 48.0869 112.445 48.4019 112.605C48.3993 112.089 48.3967 111.574 48.3941 111.043C48.3322 98.5126 48.2859 85.9817 48.2568 73.4507C48.2423 67.3908 48.2226 61.3311 48.1906 55.2713C48.1626 49.9901 48.1446 44.709 48.1383 39.4278C48.1347 36.6308 48.126 33.8341 48.1057 31.0372C48.0867 28.4052 48.0808 25.7735 48.085 23.1414C48.0842 22.175 48.0787 21.2086 48.0679 20.2422C48.054 18.9229 48.0573 17.6048 48.065 16.2855C48.0624 15.5471 48.0598 14.8088 48.0572 14.0481C48.8173 9.82693 51.6253 8.79656 55.4828 9.03126Z" fill="#015AFF"/>
</g>
<path d="M204.96 87.52V120H196V88.64C196 84.2347 195.179 80.9867 193.536 78.896C191.968 76.8053 189.504 75.76 186.144 75.76C183.68 75.76 181.552 76.2827 179.76 77.328C177.968 78.2987 176.587 79.7547 175.616 81.696C174.645 83.6373 174.16 85.952 174.16 88.64V120H165.2V88.64C165.2 84.2347 164.379 80.9867 162.736 78.896C161.168 76.8053 158.704 75.76 155.344 75.76C152.88 75.76 150.752 76.2827 148.96 77.328C147.168 78.2987 145.787 79.7547 144.816 81.696C143.845 83.6373 143.36 85.952 143.36 88.64V120H134.4V68.48H143.36V75.984C144.928 73.072 146.869 70.9067 149.184 69.488C151.573 68.0693 154.373 67.36 157.584 67.36C161.168 67.36 164.229 68.2187 166.768 69.936C169.381 71.5787 171.285 73.9307 172.48 76.992C174.272 73.7813 176.512 71.392 179.2 69.824C181.888 68.1813 184.949 67.36 188.384 67.36C191.893 67.36 194.88 68.144 197.344 69.712C199.808 71.28 201.675 73.5947 202.944 76.656C204.288 79.6427 204.96 83.264 204.96 87.52ZM262.124 68.48L228.524 144.64H218.444L232.556 112.72L212.844 68.48H223.484L239.836 108.8L236.14 108.352L252.044 68.48H262.124ZM262.732 68.48H288.492V76.88H262.732V68.48ZM271.132 50.56H280.092V120H271.132V50.56ZM306.438 99.84C306.438 103.947 307.371 107.12 309.238 109.36C311.105 111.6 313.83 112.72 317.414 112.72C320.027 112.72 322.305 112.197 324.246 111.152C326.262 110.032 327.793 108.501 328.838 106.56C329.958 104.619 330.518 102.379 330.518 99.84V68.48H339.478V120H330.518V111.936C328.801 114.997 326.673 117.312 324.134 118.88C321.595 120.373 318.609 121.12 315.174 121.12C309.798 121.12 305.505 119.291 302.294 115.632C299.083 111.973 297.478 107.083 297.478 100.96V68.48H306.438V99.84ZM389.362 88.64C389.362 84.384 388.429 81.1733 386.562 79.008C384.695 76.8427 381.97 75.76 378.386 75.76C375.773 75.76 373.458 76.32 371.442 77.44C369.501 78.4853 367.97 79.9787 366.85 81.92C365.805 83.8613 365.282 86.1013 365.282 88.64V120H356.322V68.48H365.282V76.544C366.999 73.408 369.127 71.0933 371.666 69.6C374.279 68.1067 377.266 67.36 380.626 67.36C386.077 67.36 390.37 69.1893 393.506 72.848C396.717 76.432 398.322 81.3227 398.322 87.52V120H389.362V88.64ZM435.102 121.12C430.323 121.12 426.067 120 422.334 117.76C418.675 115.445 415.8 112.272 413.71 108.24C411.694 104.208 410.686 99.5413 410.686 94.24C410.686 88.864 411.731 84.16 413.822 80.128C415.987 76.096 418.974 72.96 422.782 70.72C426.664 68.48 431.144 67.36 436.222 67.36C441.299 67.36 445.63 68.4427 449.214 70.608C452.872 72.6987 455.672 75.7227 457.614 79.68C459.555 83.6373 460.526 88.3413 460.526 93.792C460.526 94.3147 460.488 94.8747 460.414 95.472C460.414 95.9947 460.414 96.3307 460.414 96.48H416.398V88.864H453.358L449.774 94.016C449.998 93.6427 450.222 93.0827 450.446 92.336C450.67 91.5147 450.782 90.8427 450.782 90.32C450.782 87.2587 450.147 84.608 448.878 82.368C447.683 80.128 446.003 78.3733 443.838 77.104C441.672 75.8347 439.134 75.2 436.222 75.2C432.787 75.2 429.838 75.9467 427.374 77.44C424.984 78.8587 423.118 80.9493 421.774 83.712C420.504 86.4 419.832 89.7227 419.758 93.68C419.758 97.712 420.392 101.147 421.662 103.984C422.931 106.821 424.798 108.987 427.262 110.48C429.726 111.973 432.712 112.72 436.222 112.72C439.731 112.72 442.83 111.973 445.518 110.48C448.206 108.912 450.483 106.56 452.35 103.424L459.63 108.016C456.942 112.347 453.544 115.632 449.438 117.872C445.406 120.037 440.627 121.12 435.102 121.12ZM474.934 104.208C475.98 105.776 477.174 107.232 478.518 108.576C479.862 109.92 481.393 111.003 483.11 111.824C484.902 112.571 486.844 112.944 488.934 112.944C491.473 112.944 493.452 112.384 494.87 111.264C496.364 110.069 497.11 108.464 497.11 106.448C497.11 104.656 496.513 103.163 495.318 101.968C494.198 100.699 492.742 99.6533 490.95 98.832C489.158 97.936 487.254 97.1147 485.238 96.368C482.998 95.472 480.721 94.4267 478.406 93.232C476.166 91.9627 474.262 90.3573 472.694 88.416C471.201 86.4 470.454 83.8987 470.454 80.912C470.454 77.8507 471.238 75.312 472.806 73.296C474.449 71.28 476.54 69.7867 479.078 68.816C481.692 67.8453 484.38 67.36 487.142 67.36C489.905 67.36 492.481 67.808 494.87 68.704C497.334 69.6 499.5 70.7947 501.366 72.288C503.233 73.7813 504.689 75.4987 505.734 77.44L498.566 82.032C497.148 80.0907 495.356 78.4853 493.19 77.216C491.1 75.9467 488.71 75.312 486.022 75.312C484.156 75.312 482.55 75.7227 481.206 76.544C479.862 77.3653 479.19 78.6347 479.19 80.352C479.19 81.696 479.713 82.8907 480.758 83.936C481.804 84.9813 483.148 85.9147 484.79 86.736C486.433 87.5573 488.15 88.3413 489.942 89.088C492.929 90.2827 495.654 91.5893 498.118 93.008C500.582 94.352 502.524 95.9947 503.942 97.936C505.436 99.8773 506.182 102.379 506.182 105.44C506.182 109.92 504.54 113.653 501.254 116.64C498.044 119.627 493.788 121.12 488.486 121.12C485.052 121.12 481.953 120.523 479.19 119.328C476.428 118.059 474.076 116.453 472.134 114.512C470.268 112.571 468.849 110.592 467.878 108.576L474.934 104.208ZM520.218 115.52C520.218 113.803 520.815 112.347 522.01 111.152C523.279 109.957 524.735 109.36 526.378 109.36C528.095 109.36 529.551 109.957 530.746 111.152C531.941 112.347 532.538 113.803 532.538 115.52C532.538 117.163 531.941 118.619 530.746 119.888C529.551 121.083 528.095 121.68 526.378 121.68C524.735 121.68 523.279 121.083 522.01 119.888C520.815 118.619 520.218 117.163 520.218 115.52Z" fill="#015AFF"/>
<defs>
<filter id="filter0_d_2028_13828" x="0" y="9" width="108" height="152.167" filterUnits="userSpaceOnUse" color-interpolation-filters="sRGB">
<feFlood flood-opacity="0" result="BackgroundImageFix"/>
<feColorMatrix in="SourceAlpha" type="matrix" values="0 0 0 0 0 0 0 0 0 0 0 0 0 0 0 0 0 0 127 0" result="hardAlpha"/>
<feOffset dy="4"/>
<feGaussianBlur stdDeviation="2"/>
<feComposite in2="hardAlpha" operator="out"/>
<feColorMatrix type="matrix" values="0 0 0 0 0 0 0 0 0 0 0 0 0 0 0 0 0 0 0.25 0"/>
<feBlend mode="normal" in2="BackgroundImageFix" result="effect1_dropShadow_2028_13828"/>
<feBlend mode="normal" in="SourceGraphic" in2="effect1_dropShadow_2028_13828" result="shape"/>
</filter>
</defs>
</svg>
