<svg width="529" height="145" viewBox="0 0 529 145" fill="none" xmlns="http://www.w3.org/2000/svg">
<path d="M51.4828 0.0312639C53.1513 0.404202 54.0583 1.11174 55.02 2.52857C55.7194 3.91401 56.2511 5.33004 56.7995 6.7821C60.6976 16.5864 69.23 22.6194 77.736 28.2098C80.9783 30.344 84.0773 32.5491 86.9881 35.1273C87.4576 35.5382 87.9271 35.9492 88.4109 36.3726C94.9713 42.4875 99.6616 51.3395 99.9898 60.4314C100.223 74.3271 96.4653 86.9848 87.9818 98.1562C86.2106 99.864 84.6488 100.245 82.2252 100.202C79.7916 99.5489 78.8915 98.9517 77.4622 96.8692C77.0561 95.1032 77.0543 93.5841 77.4622 91.8176C78.1561 90.855 78.1561 90.8551 78.9682 89.9583C79.9917 88.6753 80.2691 88.1278 80.2333 86.4634C78.1001 76.6764 72.3073 67.8695 63.8873 62.4341C62.2237 61.4428 60.5292 60.5723 58.7936 59.7144C58.1951 59.4177 57.5966 59.1209 56.98 58.8152C56.5275 58.5924 56.075 58.3697 55.6088 58.1402C55.6114 58.484 55.614 58.8278 55.6166 59.182C55.6787 67.5735 55.725 75.965 55.754 84.3567C55.7684 88.4149 55.788 92.4731 55.8202 96.5313C55.8482 100.071 55.8662 103.611 55.8724 107.151C55.876 109.023 55.886 110.894 55.905 112.766C55.9255 114.863 55.9282 116.96 55.9269 119.057C55.9369 119.668 55.947 120.279 55.9574 120.908C55.921 126.399 54.3096 131.788 50.4388 135.833C42.2604 143.141 33.5087 144.459 22.9769 144.118C15.7479 143.649 9.52777 139.88 4.60651 134.723C0.545501 129.709 -0.394972 124.514 0.1347 118.198C1.00662 114.881 2.51567 111.924 4.61746 109.218C4.84788 108.914 5.0783 108.611 5.3157 108.299C7.47958 105.794 10.0427 104.347 12.9526 102.868C13.3222 102.679 13.6919 102.489 14.0727 102.294C18.5123 100.14 22.8643 99.4659 27.7667 99.5002C28.4615 99.5038 28.4615 99.5038 29.1704 99.5074C33.8833 99.5939 38.0327 100.381 42.2564 102.519C42.8598 102.823 42.8598 102.823 43.4753 103.134C43.7811 103.289 44.0869 103.445 44.4019 103.605C44.3993 103.089 44.3967 102.574 44.3941 102.043C44.3322 89.5126 44.2859 76.9817 44.2568 64.4507C44.2423 58.3908 44.2226 52.3311 44.1906 46.2713C44.1626 40.9901 44.1446 35.709 44.1383 30.4278C44.1347 27.6308 44.126 24.8341 44.1057 22.0372C44.0867 19.4052 44.0808 16.7735 44.085 14.1414C44.0843 13.175 44.0787 12.2086 44.0679 11.2422C44.054 9.92294 44.0573 8.60478 44.065 7.28546C44.0624 6.54714 44.0598 5.80882 44.0572 5.04813C44.8173 0.826926 47.6253 -0.203441 51.4828 0.0312639Z" fill="white"/>
<path d="M200.96 78.52V111H192V79.64C192 75.2347 191.179 71.9867 189.536 69.896C187.968 67.8053 185.504 66.76 182.144 66.76C179.68 66.76 177.552 67.2827 175.76 68.328C173.968 69.2987 172.587 70.7547 171.616 72.696C170.645 74.6373 170.16 76.952 170.16 79.64V111H161.2V79.64C161.2 75.2347 160.379 71.9867 158.736 69.896C157.168 67.8053 154.704 66.76 151.344 66.76C148.88 66.76 146.752 67.2827 144.96 68.328C143.168 69.2987 141.787 70.7547 140.816 72.696C139.845 74.6373 139.36 76.952 139.36 79.64V111H130.4V59.48H139.36V66.984C140.928 64.072 142.869 61.9067 145.184 60.488C147.573 59.0693 150.373 58.36 153.584 58.36C157.168 58.36 160.229 59.2187 162.768 60.936C165.381 62.5787 167.285 64.9307 168.48 67.992C170.272 64.7813 172.512 62.392 175.2 60.824C177.888 59.1813 180.949 58.36 184.384 58.36C187.893 58.36 190.88 59.144 193.344 60.712C195.808 62.28 197.675 64.5947 198.944 67.656C200.288 70.6427 200.96 74.264 200.96 78.52Z" fill="white"/>
<path d="M258.124 59.48L224.524 135.64H214.444L228.556 103.72L208.844 59.48H219.484L235.836 99.8L232.14 99.352L248.044 59.48H258.124Z" fill="white"/>
<path d="M258.732 59.48H284.492V67.88H258.732V59.48ZM267.132 41.56H276.092V111H267.132V41.56Z" fill="white"/>
<path d="M302.438 90.84C302.438 94.9467 303.371 98.12 305.238 100.36C307.105 102.6 309.83 103.72 313.414 103.72C316.027 103.72 318.305 103.197 320.246 102.152C322.262 101.032 323.793 99.5013 324.838 97.56C325.958 95.6187 326.518 93.3787 326.518 90.84V59.48H335.478V111H326.518V102.936C324.801 105.997 322.673 108.312 320.134 109.88C317.595 111.373 314.609 112.12 311.174 112.12C305.798 112.12 301.505 110.291 298.294 106.632C295.083 102.973 293.478 98.0827 293.478 91.96V59.48H302.438V90.84Z" fill="white"/>
<path d="M385.362 79.64C385.362 75.384 384.429 72.1733 382.562 70.008C380.695 67.8427 377.97 66.76 374.386 66.76C371.773 66.76 369.458 67.32 367.442 68.44C365.501 69.4853 363.97 70.9787 362.85 72.92C361.805 74.8613 361.282 77.1013 361.282 79.64V111H352.322V59.48H361.282V67.544C362.999 64.408 365.127 62.0933 367.666 60.6C370.279 59.1067 373.266 58.36 376.626 58.36C382.077 58.36 386.37 60.1893 389.506 63.848C392.717 67.432 394.322 72.3227 394.322 78.52V111H385.362V79.64Z" fill="white"/>
<path d="M431.102 112.12C426.323 112.12 422.067 111 418.334 108.76C414.675 106.445 411.8 103.272 409.71 99.24C407.694 95.208 406.686 90.5413 406.686 85.24C406.686 79.864 407.731 75.16 409.822 71.128C411.987 67.096 414.974 63.96 418.782 61.72C422.664 59.48 427.144 58.36 432.222 58.36C437.299 58.36 441.63 59.4427 445.214 61.608C448.872 63.6987 451.672 66.7227 453.614 70.68C455.555 74.6373 456.526 79.3413 456.526 84.792C456.526 85.3147 456.488 85.8747 456.414 86.472C456.414 86.9947 456.414 87.3307 456.414 87.48H412.398V79.864H449.358L445.774 85.016C445.998 84.6427 446.222 84.0827 446.446 83.336C446.67 82.5147 446.782 81.8427 446.782 81.32C446.782 78.2587 446.147 75.608 444.878 73.368C443.683 71.128 442.003 69.3733 439.838 68.104C437.672 66.8347 435.134 66.2 432.222 66.2C428.787 66.2 425.838 66.9467 423.374 68.44C420.984 69.8587 419.118 71.9493 417.774 74.712C416.504 77.4 415.832 80.7227 415.758 84.68C415.758 88.712 416.392 92.1467 417.662 94.984C418.931 97.8213 420.798 99.9867 423.262 101.48C425.726 102.973 428.712 103.72 432.222 103.72C435.731 103.72 438.83 102.973 441.518 101.48C444.206 99.912 446.483 97.56 448.35 94.424L455.63 99.016C452.942 103.347 449.544 106.632 445.438 108.872C441.406 111.037 436.627 112.12 431.102 112.12Z" fill="white"/>
<path d="M470.934 95.208C471.98 96.776 473.174 98.232 474.518 99.576C475.862 100.92 477.393 102.003 479.11 102.824C480.902 103.571 482.844 103.944 484.934 103.944C487.473 103.944 489.452 103.384 490.87 102.264C492.364 101.069 493.11 99.464 493.11 97.448C493.11 95.656 492.513 94.1627 491.318 92.968C490.198 91.6987 488.742 90.6533 486.95 89.832C485.158 88.936 483.254 88.1147 481.238 87.368C478.998 86.472 476.721 85.4267 474.406 84.232C472.166 82.9627 470.262 81.3573 468.694 79.416C467.201 77.4 466.454 74.8987 466.454 71.912C466.454 68.8507 467.238 66.312 468.806 64.296C470.449 62.28 472.54 60.7867 475.078 59.816C477.692 58.8453 480.38 58.36 483.142 58.36C485.905 58.36 488.481 58.808 490.87 59.704C493.334 60.6 495.5 61.7947 497.366 63.288C499.233 64.7813 500.689 66.4987 501.734 68.44L494.566 73.032C493.148 71.0907 491.356 69.4853 489.19 68.216C487.1 66.9467 484.71 66.312 482.022 66.312C480.156 66.312 478.55 66.7227 477.206 67.544C475.862 68.3653 475.19 69.6347 475.19 71.352C475.19 72.696 475.713 73.8907 476.758 74.936C477.804 75.9813 479.148 76.9147 480.79 77.736C482.433 78.5573 484.15 79.3413 485.942 80.088C488.929 81.2827 491.654 82.5893 494.118 84.008C496.582 85.352 498.524 86.9947 499.942 88.936C501.436 90.8773 502.182 93.3787 502.182 96.44C502.182 100.92 500.54 104.653 497.254 107.64C494.044 110.627 489.788 112.12 484.486 112.12C481.052 112.12 477.953 111.523 475.19 110.328C472.428 109.059 470.076 107.453 468.134 105.512C466.268 103.571 464.849 101.592 463.878 99.576L470.934 95.208Z" fill="white"/>
<path d="M516.218 106.52C516.218 104.803 516.815 103.347 518.01 102.152C519.279 100.957 520.735 100.36 522.378 100.36C524.095 100.36 525.551 100.957 526.746 102.152C527.941 103.347 528.538 104.803 528.538 106.52C528.538 108.163 527.941 109.619 526.746 110.888C525.551 112.083 524.095 112.68 522.378 112.68C520.735 112.68 519.279 112.083 518.01 110.888C516.815 109.619 516.218 108.163 516.218 106.52Z" fill="white"/>
</svg>
