<svg width="139" height="40" viewBox="0 0 139 40" fill="none" xmlns="http://www.w3.org/2000/svg">
<g id="Group">
<path id="BG" d="M133.333 40H5.1282C2.30897 40 0 37.7488 0 35V5C0 2.25126 2.30897 4.76837e-06 5.1282 4.76837e-06H133.333C136.153 4.76837e-06 138.462 2.25126 138.462 5V35C138.462 37.7488 136.153 40 133.333 40Z" fill="black"/>
<g id="Icon">
<path id="Vector" d="M10.7022 7.54015C10.4009 7.84765 10.2266 8.3264 10.2266 8.9464V31.0614C10.2266 31.6814 10.4009 32.1602 10.7022 32.4677L10.7766 32.5352L23.4868 20.1477V19.8552L10.7766 7.46766L10.7022 7.54015Z" fill="url(#paint0_linear_3685_7222)"/>
<path id="Vector_2" d="M27.7184 24.2773L23.4863 20.1461V19.8536L27.7235 15.7223L27.8184 15.7761L32.8363 18.5598C34.2684 19.3498 34.2684 20.6498 32.8363 21.4448L27.8184 24.2236L27.7184 24.2773Z" fill="url(#paint1_linear_3685_7222)"/>
<path id="Vector_3" d="M27.8198 24.2245L23.4877 20.0007L10.7031 32.467C11.1788 32.9545 11.9544 33.0132 12.8365 32.5257L27.8198 24.2245Z" fill="url(#paint2_linear_3685_7222)"/>
<path id="Vector_4" d="M27.8198 15.7763L12.8365 7.475C11.9544 6.9925 11.1788 7.05125 10.7031 7.53875L23.4877 20L27.8198 15.7763Z" fill="url(#paint3_linear_3685_7222)"/>
</g>
<g id="GET IT ON">
<path id="G" d="M48.6326 10.2459C48.6326 11.0809 48.3762 11.7497 47.8711 12.2484C47.2903 12.8397 46.5339 13.1372 45.607 13.1372C44.7211 13.1372 43.9647 12.8347 43.3442 12.2384C42.7224 11.6334 42.4121 10.8909 42.4121 10.0022C42.4121 9.11344 42.7224 8.37094 43.3442 7.77094C43.9647 7.16969 44.7211 6.86719 45.607 6.86719C46.048 6.86719 46.4685 6.95594 46.8698 7.12094C47.2698 7.28719 47.5954 7.51219 47.8313 7.78969L47.2954 8.31719C46.8839 7.84344 46.3236 7.60969 45.607 7.60969C44.9608 7.60969 44.4006 7.82969 43.9249 8.27344C43.4544 8.71844 43.2185 9.29469 43.2185 10.0022C43.2185 10.7097 43.4544 11.2909 43.9249 11.7359C44.4006 12.1747 44.9608 12.3997 45.607 12.3997C46.2929 12.3997 46.8698 12.1747 47.3249 11.7309C47.6249 11.4372 47.7954 11.0322 47.8403 10.5147H45.607V9.79219H48.5865C48.6224 9.94844 48.6326 10.0997 48.6326 10.2459Z" fill="white" stroke="white" stroke-width="0.16" stroke-miterlimit="10"/>
<path id="E" d="M53.3586 7.74016H50.5599V9.64016H53.083V10.3627H50.5599V12.2627H53.3586V12.9989H49.7676V7.00391H53.3586V7.74016Z" fill="white" stroke="white" stroke-width="0.16" stroke-miterlimit="10"/>
<path id="T" d="M56.6945 12.9989H55.9022V7.74016H54.1855V7.00391H58.4125V7.74016H56.6945V12.9989Z" fill="white" stroke="white" stroke-width="0.16" stroke-miterlimit="10"/>
<path id="I" d="M61.4727 12.9989V7.00391H62.2637V12.9989H61.4727Z" fill="white" stroke="white" stroke-width="0.16" stroke-miterlimit="10"/>
<path id="T_2" d="M65.7707 12.9989H64.9848V7.74016H63.2617V7.00391H67.4938V7.74016H65.7707V12.9989Z" fill="white" stroke="white" stroke-width="0.16" stroke-miterlimit="10"/>
<path id="O" d="M75.4954 12.2284C74.889 12.8347 74.1377 13.1372 73.2416 13.1372C72.3403 13.1372 71.589 12.8347 70.9826 12.2284C70.3775 11.6234 70.0762 10.8809 70.0762 10.0022C70.0762 9.12344 70.3775 8.38094 70.9826 7.77594C71.589 7.16969 72.3403 6.86719 73.2416 6.86719C74.1326 6.86719 74.8839 7.16969 75.4903 7.78094C76.1005 8.39094 76.4018 9.12844 76.4018 10.0022C76.4018 10.8809 76.1005 11.6234 75.4954 12.2284ZM71.5685 11.7259C72.0249 12.1747 72.58 12.3997 73.2416 12.3997C73.898 12.3997 74.4582 12.1747 74.9095 11.7259C75.3646 11.2772 75.5954 10.7009 75.5954 10.0022C75.5954 9.30344 75.3646 8.72719 74.9095 8.27844C74.4582 7.82969 73.898 7.60469 73.2416 7.60469C72.58 7.60469 72.0249 7.82969 71.5685 8.27844C71.1134 8.72719 70.8826 9.30344 70.8826 10.0022C70.8826 10.7009 71.1134 11.2772 71.5685 11.7259Z" fill="white" stroke="white" stroke-width="0.16" stroke-miterlimit="10"/>
<path id="N" d="M77.5137 12.9989V7.00391H78.4752L81.465 11.6664H81.4996L81.465 10.5139V7.00391H82.256V12.9989H81.4303L78.2996 8.10641H78.265L78.2996 9.2639V12.9989H77.5137Z" fill="white" stroke="white" stroke-width="0.16" stroke-miterlimit="10"/>
</g>
<g id="Google Play">
<path id="Google Play_2" d="M69.8815 21.7531C67.4726 21.7531 65.5046 23.5406 65.5046 26.0069C65.5046 28.4531 67.4726 30.2594 69.8815 30.2594C72.2956 30.2594 74.2636 28.4531 74.2636 26.0069C74.2636 23.5406 72.2956 21.7531 69.8815 21.7531ZM69.8815 28.5844C68.5597 28.5844 67.4226 27.5206 67.4226 26.0069C67.4226 24.4731 68.5597 23.4281 69.8815 23.4281C71.2033 23.4281 72.3456 24.4731 72.3456 26.0069C72.3456 27.5206 71.2033 28.5844 69.8815 28.5844ZM60.3315 21.7531C57.9174 21.7531 55.9546 23.5406 55.9546 26.0069C55.9546 28.4531 57.9174 30.2594 60.3315 30.2594C62.7443 30.2594 64.7085 28.4531 64.7085 26.0069C64.7085 23.5406 62.7443 21.7531 60.3315 21.7531ZM60.3315 28.5844C59.0085 28.5844 57.8674 27.5206 57.8674 26.0069C57.8674 24.4731 59.0085 23.4281 60.3315 23.4281C61.6533 23.4281 62.7905 24.4731 62.7905 26.0069C62.7905 27.5206 61.6533 28.5844 60.3315 28.5844ZM48.9674 23.0569V24.8644H53.3944C53.2649 25.8744 52.9187 26.6169 52.3879 27.1344C51.7418 27.7594 50.7354 28.4531 48.9674 28.4531C46.2431 28.4531 44.1097 26.3094 44.1097 23.6531C44.1097 20.9969 46.2431 18.8531 48.9674 18.8531C50.4405 18.8531 51.5123 19.4144 52.3033 20.1419L53.6097 18.8681C52.5033 17.8381 51.0315 17.0469 48.9674 17.0469C45.2315 17.0469 42.0918 20.0106 42.0918 23.6531C42.0918 27.2956 45.2315 30.2594 48.9674 30.2594C50.9867 30.2594 52.5033 29.6144 53.6956 28.4044C54.9174 27.2131 55.2982 25.5381 55.2982 24.1856C55.2982 23.7656 55.2623 23.3794 55.1982 23.0569H48.9674ZM95.4366 24.4581C95.0764 23.5069 93.9648 21.7531 91.7007 21.7531C89.4572 21.7531 87.5892 23.4769 87.5892 26.0069C87.5892 28.3894 89.4379 30.2594 91.9161 30.2594C93.92 30.2594 95.0764 29.0681 95.552 28.3744L94.0648 27.4081C93.5687 28.1156 92.8931 28.5844 91.9161 28.5844C90.9456 28.5844 90.2495 28.1506 89.8033 27.2956L95.6379 24.9419L95.4366 24.4581ZM89.4879 25.8744C89.4379 24.2344 90.7943 23.3944 91.7661 23.3944C92.5277 23.3944 93.1738 23.7656 93.3892 24.2969L89.4879 25.8744ZM84.7456 30.0006H86.6636V17.5006H84.7456V30.0006ZM81.6046 22.7006H81.5405C81.1097 22.2031 80.2879 21.7531 79.2469 21.7531C77.0623 21.7531 75.0649 23.6231 75.0649 26.0206C75.0649 28.4044 77.0623 30.2594 79.2469 30.2594C80.2879 30.2594 81.1097 29.8056 81.5405 29.2931H81.6046V29.9031C81.6046 31.5294 80.7136 32.4031 79.2764 32.4031C78.1046 32.4031 77.3777 31.5781 77.0777 30.8844L75.4097 31.5631C75.8905 32.6906 77.1636 34.0781 79.2764 34.0781C81.5251 34.0781 83.4225 32.7881 83.4225 29.6494V22.0119H81.6046V22.7006ZM79.411 28.5844C78.0892 28.5844 76.9828 27.5056 76.9828 26.0206C76.9828 24.5219 78.0892 23.4281 79.411 23.4281C80.7136 23.4281 81.7405 24.5219 81.7405 26.0206C81.7405 27.5056 80.7136 28.5844 79.411 28.5844ZM104.416 17.5006H99.8289V30.0006H101.742V25.2644H104.416C106.54 25.2644 108.624 23.7656 108.624 21.3819C108.624 18.9994 106.535 17.5006 104.416 17.5006ZM104.466 23.5256H101.742V19.2394H104.466C105.894 19.2394 106.71 20.3956 106.71 21.3819C106.71 22.3494 105.894 23.5256 104.466 23.5256ZM116.29 21.7294C114.908 21.7294 113.471 22.3244 112.88 23.6431L114.578 24.3369C114.943 23.6431 115.615 23.4181 116.325 23.4181C117.317 23.4181 118.324 23.9994 118.339 25.0256V25.1569C117.993 24.9619 117.252 24.6731 116.34 24.6731C114.512 24.6731 112.649 25.6544 112.649 27.4856C112.649 29.1606 114.147 30.2394 115.83 30.2394C117.117 30.2394 117.828 29.6731 118.274 29.0144H118.339V29.9806H120.187V25.1856C120.187 22.9694 118.489 21.7294 116.29 21.7294ZM116.06 28.5794C115.434 28.5794 114.562 28.2769 114.562 27.5206C114.562 26.5531 115.649 26.1819 116.59 26.1819C117.433 26.1819 117.828 26.3631 118.339 26.6019C118.189 27.7594 117.167 28.5794 116.06 28.5794ZM126.917 22.0031L124.719 27.4219H124.653L122.38 22.0031H120.317L123.733 29.5756L121.784 33.7894H123.783L129.046 22.0031H126.917ZM109.675 30.0006H111.593V17.5006H109.675V30.0006Z" fill="white"/>
</g>
</g>
<defs>
<linearGradient id="paint0_linear_3685_7222" x1="22.3583" y1="31.2917" x2="5.58127" y2="14.0845" gradientUnits="userSpaceOnUse">
<stop stop-color="#00A0FF"/>
<stop offset="0.0066" stop-color="#00A1FF"/>
<stop offset="0.2601" stop-color="#00BEFF"/>
<stop offset="0.5122" stop-color="#00D2FF"/>
<stop offset="0.7604" stop-color="#00DFFF"/>
<stop offset="1" stop-color="#00E3FF"/>
</linearGradient>
<linearGradient id="paint1_linear_3685_7222" x1="34.7011" y1="19.9984" x2="9.88377" y2="19.9984" gradientUnits="userSpaceOnUse">
<stop stop-color="#FFE000"/>
<stop offset="0.4087" stop-color="#FFBD00"/>
<stop offset="0.7754" stop-color="#FFA500"/>
<stop offset="1" stop-color="#FF9C00"/>
</linearGradient>
<linearGradient id="paint2_linear_3685_7222" x1="25.4641" y1="17.7046" x2="2.71314" y2="-5.62976" gradientUnits="userSpaceOnUse">
<stop stop-color="#FF3A44"/>
<stop offset="1" stop-color="#C31162"/>
</linearGradient>
<linearGradient id="paint3_linear_3685_7222" x1="7.48497" y1="39.8238" x2="17.6443" y2="29.4041" gradientUnits="userSpaceOnUse">
<stop stop-color="#32A071"/>
<stop offset="0.0685" stop-color="#2DA771"/>
<stop offset="0.4762" stop-color="#15CF74"/>
<stop offset="0.8009" stop-color="#06E775"/>
<stop offset="1" stop-color="#00F076"/>
</linearGradient>
</defs>
</svg>
